<svg viewBox="0 0 40 40" xmlns="http://www.w3.org/2000/svg">
	<path fill="#fff" opacity=".3" d="M26.2 27.3c-.1-.2.6-.8.7-.9.2-.2.4-.4.6-.4.2-.1.5-.1.8-.1.5 0 1.1 0 1.6-.1 1.7-.1 3.5-.4 5.1.2.3.1.5.2.7.3.1.1.3.1.3.3 0 .1-.1.4-.1.6-.2.7-.3 1.4-1 1.8-.3.2-.7.2-1.1.2-.8.1-1.7.1-2.5.1-.9 0-1.7 0-2.6-.1h-1.2c-.1 0-.4.1-.5 0l-.8-1.9zm1.012-9.281c-.3-.3-.312-2.519-.312-3.019.1-.7.4-1.3.8-1.8 1.1-1.6 2.3-3.2 3.5-4.7.2-.3 2.02-2.013 2.752-1.543.5-.2 1.804.963 2.204 1.363.2.2.4.4.5.6.1.2.3.4.4.6.1.3-.856 2.28-.956 2.48-.5.8-1.1 1.6-1.7 2.4-.7 1-1.4 1.9-2.1 2.9-.3.4-.6.9-1 1.2-.1.1-2.888-.081-3.688-.181zM5.3 31.1c-.6-.1-1.339-1.133-1.739-1.633-.4-.5.039-2.067.239-2.567.4-.9 1.5-1.2 2.4-1.5 1.9-.6 7-.6 9-.5 1 .1 2 .1 3 .1s.9 2.8.7 4c-.1.3-.2.5-.4.7-.2.2-.3.3-.6.4-.3.1-.6.2-1 .2-.9.1-2.8.1-3.8.1-1.3 0-2.6 0-3.9.1-.5.1-1.248.303-1.748.503-.3.1-1.752.197-2.152.097z" />
	<path fill="#fff" opacity=".3" d="M13.94 17.683c-.2.3-1.578 1.939-1.778 2.239-.2.2-.862.878-1.262.678-1.8-.7-3.487-2.064-4.887-3.464-.7-.7-1.74-1.836-2.54-2.436-.4-.3-1.742-1.929-2.142-2.229-.84-1.986 1.535-4.147 3.126-4.087.7.1 2.687 1.469 3.187 1.969" />
	<path fill="#fff" opacity=".3" d="M25.2 27.3c.533-.892 1.475-1.57 2.1-2.4.5 0 2.1 0 2.6-.1 1.7-.1 4.5-.4 6.1.2.3.1.5.2.7.3.1.1.3.1.3.3 0 .1-.1.4-.1.6-.2.7-.3 3.4-1 3.8-.3.2-.7.2-1.1.2-.8.1-2.7.1-3.5.1-.9 0-1.7 0-2.6-.1h-1.2c-.1 0-1.1 0-1.2-.1z" />
	<path fill="#fff" opacity=".3" d="M19.5 19.7s-.334-.166-1.428-.418c-1.9-.5-3.56-1.793-4.76-3.493-.9-1.3-1.4-3.067-1.4-4.567 0-.7.56-2.46.86-3.06.701-.877 1.093-1.363 3.017-2.359 1.1-.6 2.65-.957 3.95-.957.7 0 1.648.132 2.348.332 1 .3 2.157.667 3.557 3.142.7 1.4.809 2.754 1.009 4.254.1.9-.053 2.026-.353 2.826-.235 1.08-.994 1.452-1.6 2.4 0 .6.1 1.2.2 1.7h.3c1 .1 1.1 0 2.2 0 1.7-.1 3.5-.3 5.2-.3.2 0 1.8-.1 2 0 .2.1.3 1.6.4 1.8.1.2.2.5.3.7.1.2 0 .3-.1.5-.2.3-.4.5-.6.8-.1.2-.2 1.4-.4 1.6-.2.2-.4.1-.6.2-2.1.3-5.3.3-7.4.4h-.8c.2 1.5.3 2 .4 3.6 0 .4 0 .8.1 1.2.4.1.372.052.4.1 1.2.1 2.4-.1 3.6.2 1 .2 3.15.207 3.95.807.5.4.95 1.993.75 2.593-.2.7-.368 2.106-2.4 2.3-.5.1-1 0-1.5 0-.7-.1-1.4-.2-2.1-.2-2.7-.2-5.4 0-8.2.1-1.4 0-2.7.2-4 .4-.7.1-1.3.2-2 .2-.5 0-.977.028-1.7 0-.763-.056-3.005.05-3.622-1.915-.362-.96.047-2.521.847-2.921.8-.4 2.385-.31 3.285-.41l3-.3c.9-.1 1.9-.2 2.8-.3 1.642-.207.82-.445 1.325-.709 0-.9.065-.845.065-1.745.01-1.375-.16-1.524-.3-2.8-.1-.1-.4 0-.5 0h-5.5c-.7 0-1.4 0-2.1-.1-.7 0-2.5 0-3-.5-1.1-1-1.185-3.808 1.1-5zm-.3-9.1c-.74.158-.79.203-1.121.333-.246.198-.287.193-.379.667-.116.598 0 1.7 1.2 2 1.135.301 1.095.774 1.917.092 0-.1.083-.392.083-.492-.1-.4-.1-.8-.2-1.2-.1-.5-.37-.688-.67-1.188 0 0-.386-.168-.83-.212z" />
	<path d="M20.5 20.7c.2-.2-.1-1.3-.2-1.6 0-.2 0-.3-.1-.4s-.6-.1-.7-.1c-1.9-.5-3.6-1.4-4.8-3.1-.9-1.3-1.3-2.8-1.3-4.3 0-.7.2-1.5.5-2.1.4-.9 1.2-1.5 2.1-2 1.1-.6 2.4-.9 3.7-.9.7 0 1.4 0 2.1.2 1 .3 1.8 1.1 2.3 2 .7 1.4 1.1 2.7 1.3 4.2.1.9.2 2-.1 2.8-.2.5-.5.9-.8 1.3-.3.3-.8.7-.8 1.1 0 .6.1 1.2.2 1.7 0 .3.1.6.1.8 0 .2 0 .2.2.2 1 .1 2.1 0 3.2 0 1.7-.1 3.5-.3 5.2-.3.2 0 .8-.1 1 0s.3.6.4.8c.1.2.2.5.3.7s0 .3-.1.5c-.2.3-.4.5-.6.8-.1.2-.2.4-.4.6s-.4.1-.6.2c-2.1.3-4.3.3-6.4.4h-1.8c.2 1.5.3 3 .4 4.6 0 .4 0 .8.1 1.2 0 .2 0 .4.1.6.1.4.9.5 1.3.5 1.2.1 2.4-.1 3.6.2 1 .2 2.3.1 3.1.7.5.4.8 1.1.6 1.7-.2.7-.7 1.2-1.4 1.3-.5.1-1 0-1.5 0-.7-.1-1.4-.2-2.1-.2-2.7-.2-5.4 0-8.2.1-1.4 0-2.7.2-4 .4-.7.1-1.3.2-2 .2-.5 0-1.2.1-1.7 0-.9-.2-1.9.1-2.4-.9-.3-.7-.2-1.8.6-2.2s1.8-.3 2.7-.4l3-.3c.9-.1 1.9-.2 2.8-.3.5-.1.9-.1 1.4-.2.2 0 .5 0 .6-.1s.1 0 .1-.2c0-.9-.1-1.8-.1-2.7 0-.7-.1-1.4-.1-2.2 0-.3-.1-.6-.1-.9 0-.2 0-.5-.1-.7-.1-.1-.4 0-.5 0h-6.5c-.7 0-1.4 0-2.1-.1-.7 0-1.5 0-2-.5-1.1-1-.3-2.9 1.1-3l9.4-.1zm-.3-11.1c-.5-.2-1.1 0-1.6.1s-.9.3-1.3.5c-.5.3-.6.8-.6 1.4 0 1.3 1 2.7 2.2 3 .6.2 1.2.2 1.8.3.2 0 .2.1.3 0 .3-.2.5-.5.7-.8.1-.1.3-.2.3-.4 0-.1-.1-.4-.1-.5-.1-.4-.1-.8-.2-1.2-.1-.5-.5-1.3-.8-1.8 0 0-.5-.5-.7-.6z" />
	<path d="M6.3 30.1c-.6-.1-.9-.3-1.3-.8s-.4-.9-.2-1.4c.4-.9 1.5-1.2 2.4-1.5 1.9-.6 4-.6 6-.5 1 .1 2 .1 3 .1s1.9.8 1.7 2c-.1.3-.2.5-.4.7-.2.2-.3.3-.6.4-.3.1-.6.2-1 .2-.9.1-1.8.1-2.8.1-1.3 0-2.6 0-3.9.1-.5.1-1.1.2-1.6.4-.3.1-.9.3-1.3.2zm19.9-2.8c-.1-.2.6-.8.7-.9.2-.2.4-.4.6-.4.2-.1.5-.1.8-.1.5 0 1.1 0 1.6-.1 1.7-.1 3.5-.4 5.1.2.3.1.5.2.7.3.1.1.3.1.3.3 0 .1-.1.4-.1.6-.2.7-.3 1.4-1 1.8-.3.2-.7.2-1.1.2-.8.1-1.7.1-2.5.1-.9 0-1.7 0-2.6-.1h-1.2c-.1 0-.4.1-.5 0l-.8-1.9zM10.8 15.7c.3.3 1.9 1.9 1.9 2 0 .2-.2.3-.2.4-.2.3-.4.5-.6.8-.2.2-.6.9-1 .7-1.8-.7-3-2.4-4.4-3.8-.7-.7-1.4-1.4-2.2-2-.4-.3-.7-.7-1.1-1-.2-.2-.5-.5-.6-.8-.3-1.1.5-2.3 1.6-2.2.7.1 1.4.7 1.9 1.2 1.7 1.4 3.2 3 4.7 4.7m17.4 1.5c-.3-.3-.3-.7-.3-1.2.1-.7.4-1.3.8-1.8 1.1-1.6 2.3-3.2 3.5-4.7.2-.3.6-.9 1-1.1.5-.2 1.1-.1 1.5.3.2.2.4.4.5.6.1.2.3.4.4.6.1.3-.4.9-.5 1.1-.5.8-1.1 1.6-1.7 2.4-.7 1-1.4 1.9-2.1 2.9-.3.4-.6.9-1 1.2-.1.1-.9.1-1.7 0l-.4-.3z" />
</svg>
